<?xml version="1.0" encoding="utf-8"?>
<!-- Generator: Adobe Illustrator 15.1.0, SVG Export Plug-In . SVG Version: 6.00 Build 0)  -->
<!DOCTYPE svg PUBLIC "-//W3C//DTD SVG 1.1//EN" "http://www.w3.org/Graphics/SVG/1.1/DTD/svg11.dtd">
<svg version="1.1" xmlns="http://www.w3.org/2000/svg" xmlns:xlink="http://www.w3.org/1999/xlink" x="0px" y="0px" width="26px"
	 height="27px" viewBox="0 0 26 27" enable-background="new 0 0 26 27" xml:space="preserve">
<g id="A" display="none">
	<g display="inline">
		<path fill="#999999" d="M15.016,9.656h0.063c0.479,0.167,1.646,1.115,3.5,2.844c0.625,0.25,0.938,0.542,0.938,0.875
			c0.042,0,0.063,0.021,0.063,0.063c-0.021,0.375-0.697,0.927-2.031,1.656l-6.812,5.188c-1.063,0-2.313,0.552-3.75,1.656
			c-2.542,1.625-4.417,2.771-5.625,3.438L1.297,25.25c0-0.708,1.292-2.104,3.875-4.188c0.667-0.667,1.167-1,1.5-1
			c0.5,0.042,0.781,0.063,0.844,0.063c0.417,0,0.698-0.25,0.844-0.75c1.813-1.375,3.635-2.927,5.469-4.656
			c0.146-0.708,0.448-1.188,0.906-1.438c0.375-0.167,0.563-0.458,0.563-0.875v-0.063c0-0.333-0.229-0.813-0.688-1.438
			c0.104-0.833,0.25-1.25,0.438-1.25V9.625L15.016,9.656z M10.891,7.219v0.25C9.058,9.052,8.037,9.844,7.829,9.844
			c-0.208,0-1.219-0.792-3.031-2.375v-0.25C6.61,5.636,7.641,4.844,7.891,4.844C8.037,4.844,9.037,5.636,10.891,7.219z
			 M18.266,1.344c0.709,0.25,1.125,0.375,1.25,0.375h4.813c0.209,0,0.344,0.073,0.406,0.219c-1.208,2.875-1.885,4.365-2.031,4.469
			c-0.458,0-0.833,0.979-1.125,2.938l-0.125,0.063c-0.708-0.146-1.063-0.489-1.063-1.031V7.188c0-0.458-0.021-1.063-0.063-1.813
			l0.438-1.188c0-0.417-0.666-0.729-2-0.938c-0.541-0.542-0.813-0.854-0.813-0.938c0.125-0.625,0.229-0.938,0.313-0.938V1.344z"/>
	</g>
</g>
<g id="B" display="none">
	<g display="inline">
		<path fill="#999999" d="M15.234,9.656h0.063c0.479,0.167,1.646,1.115,3.5,2.844c0.625,0.25,0.938,0.542,0.938,0.875
			c0.042,0,0.063,0.021,0.063,0.063c-0.021,0.375-0.697,0.927-2.031,1.656l-6.812,5.188c-1.063,0-2.313,0.552-3.75,1.656
			c-2.542,1.625-4.417,2.771-5.625,3.438L1.516,25.25c0-0.708,1.292-2.104,3.875-4.188c0.667-0.667,1.167-1,1.5-1
			c0.5,0.042,0.781,0.063,0.844,0.063c0.5-0.083,0.75-0.313,0.75-0.688c2.083-1.667,3.688-3.021,4.813-4.063
			c0.667-0.583,1-1.125,1-1.625c0.813-0.458,1.219-0.938,1.219-1.438c0-0.333-0.229-0.813-0.688-1.438
			c0.104-0.833,0.25-1.25,0.438-1.25L15.234,9.656z M24.422,1.406l0.125,0.188v4.688l-0.063,0.125
			c-0.541-0.083-0.958-0.313-1.25-0.688c0-0.167-0.313-0.292-0.938-0.375c-0.375-0.5-0.729-0.75-1.063-0.75
			c-0.104,0-0.281,0.063-0.531,0.188l-2.688-0.188C10.683,4.636,5.568,4.656,2.672,4.656c-0.333,0-0.563-0.229-0.688-0.688
			c1.333-0.417,6.094-0.917,14.281-1.5c1.063-0.375,3.053-0.677,5.969-0.906c1.063-0.083,1.781-0.125,2.156-0.125L24.422,1.406z
			 M19.609,18.656h0.375c1.875,1.5,2.834,2.313,2.875,2.438v0.063c-0.063,0.167-1.031,0.979-2.906,2.438h-0.375
			c-1.75-1.375-2.697-2.167-2.844-2.375v-0.188c0.146-0.208,1.094-1,2.844-2.375v-0.031L19.609,18.656z"/>
	</g>
</g>
<g id="D" display="none">
	<g display="inline">
		<path fill="#999999" d="M1.625,1.156c0.729,0.125,1.25,0.188,1.563,0.188h1.188c0.417,0,1.073-0.021,1.969-0.063
			C6.448,1.49,6.511,1.594,6.532,1.594C6.49,2.011,6.469,2.25,6.469,2.313C6.323,11.604,6.146,16.25,5.938,16.25
			c-0.5,4.875-1.042,8.438-1.625,10.688c-0.146,0-0.365-0.167-0.656-0.5c-0.042-1.5-0.063-2.583-0.063-3.25v-8.281
			c0-5.979-0.073-9.656-0.219-11.031C3.458,3.729,3.5,3.531,3.5,3.281c0-0.333-0.583-0.698-1.75-1.094l-0.25-1l0.125-0.063V1.156z
			 M13.625,1.656c0.188,0,1.187,0.792,3,2.375v0.25c-1.833,1.583-2.833,2.375-3,2.375c-0.25,0-1.271-0.813-3.063-2.438V4.031
			C12.396,2.448,13.417,1.656,13.625,1.656V1.625V1.656z M18.375,1.156c0.688,0.292,1.209,0.438,1.563,0.438h4.375
			c0.063,0,0.125,0.063,0.188,0.188l-0.75,2.313c-0.083,1.542-0.271,2.313-0.563,2.313c-0.291,0.417-0.583,1.75-0.875,4
			c-0.25,1.792-0.531,2.688-0.844,2.688c-0.375,0.458-0.614,0.688-0.719,0.688c0-0.083-0.041-0.125-0.125-0.125
			c0.167-2.375,0.25-3.989,0.25-4.844c0-0.354-0.063-1.573-0.188-3.656c0.125,0,0.229-0.208,0.313-0.625V4.438
			c0-0.5-0.688-0.958-2.063-1.375c-0.5-0.5-0.75-0.781-0.75-0.844V2.156c0-0.354,0.073-0.677,0.219-0.969L18.375,1.156z"/>
	</g>
</g>
<g id="E" display="none">
	<g display="inline">
		<path fill="#999999" d="M24.156,1.406l0.125,0.188v4.688l-0.063,0.125C23.678,6.323,23.271,6.094,23,5.719
			c0-0.167-0.313-0.292-0.938-0.375c-0.375-0.5-0.719-0.75-1.031-0.75c-0.125,0-0.313,0.063-0.563,0.188l-2.688-0.188
			C10.448,4.636,5.333,4.656,2.438,4.656c-0.333,0-0.563-0.229-0.688-0.688c1.333-0.417,6.094-0.917,14.281-1.5
			c1.084-0.375,3.094-0.677,6.031-0.906c1.084-0.083,1.792-0.125,2.125-0.125L24.156,1.406z M16.031,9.656
			c0.209,0,1.375,0.938,3.5,2.813c0.667,0.333,1,0.688,1,1.063c0,0.292-0.625,0.771-1.875,1.438l-6.968,5.313
			c-1.083,0-2.333,0.552-3.75,1.656c-3.125,2-5,3.156-5.625,3.469L2.25,25.281c0-0.708,1.292-2.104,3.875-4.188
			c0.667-0.667,1.167-1,1.5-1c0.5,0.042,0.781,0.063,0.844,0.063c0.417,0,0.688-0.25,0.813-0.75c2.083-1.583,3.854-3.083,5.312-4.5
			c0.125-0.167,0.292-0.542,0.5-1.125c0.75-0.417,1.125-0.875,1.125-1.375c0-0.375-0.229-0.833-0.688-1.375
			c0.084-0.875,0.24-1.313,0.469-1.313L16.031,9.656z M7.094,10.969c0.146,0,1.146,0.792,3,2.375v0.188
			c-1.813,1.625-2.833,2.438-3.063,2.438H6.969c-1.604-1.146-2.615-1.979-3.031-2.5c0.542-0.625,1.542-1.448,3-2.469h0.125v-0.031
			H7.094z"/>
	</g>
</g>
<g id="F" display="none">
	<g display="inline">
		<path fill="#999999" d="M2.829,11.344h0.063l1.375,0.375h4.563c0.063,0,0.146,0.083,0.25,0.25c-0.667,1.542-1,2.958-1,4.25
			c-0.542,0.292-0.896,1.563-1.063,3.813c-0.333,3-0.604,4.5-0.813,4.5l-0.938,0.875c-0.083,0-0.125-0.042-0.125-0.125l0.25-6.313
			c-0.125-1.5-0.188-2.761-0.188-3.781c0.104,0,0.188-0.167,0.25-0.5v-0.25c0-0.458-0.688-0.896-2.063-1.313l-0.75-0.813
			c0-0.104,0.063-0.448,0.188-1.031V11.25V11.344z M11.766,4.781c0.708,0.292,1.167,0.438,1.375,0.438h4.875
			c0.063,0,0.125,0.063,0.188,0.188v0.063c-0.916,2.167-1.604,3.636-2.063,4.406c-0.5,0-0.854,0.979-1.063,2.938h-0.125
			c-0.708,0-1.062-0.417-1.062-1.25c-0.042-0.5-0.063-1.25-0.063-2.25V8.938c0-0.292,0.114-0.729,0.343-1.313
			c0-0.458-0.604-0.771-1.812-0.938c-0.104,0-0.427-0.292-0.969-0.875V5.781c0-0.542,0.104-0.875,0.313-1H11.766z M18.453,1.156
			c0.729,0.125,1.261,0.188,1.594,0.188h1.25c0.417,0,1.042-0.021,1.875-0.063l0.219,0.375l-0.063,0.406
			C23.203,11.354,22.984,16,22.672,16l-1,8.563l-0.5,2.406h-0.063c-0.416-0.167-0.625-0.458-0.625-0.875v-0.125
			c0-4.917-0.021-11.229-0.063-18.938l-0.188-3.063c0.021-0.333,0.063-0.5,0.125-0.5c0-0.5-0.583-0.896-1.75-1.188l-0.25-1.063
			l0.125-0.063H18.453z"/>
	</g>
</g>
<g id="G" display="none">
	<g display="inline">
		<path fill="#999999" d="M4.188,18.844c0.167,0,1.177,0.813,3.031,2.438c0,0.25-0.49,0.729-1.469,1.438
			c-0.854,0.75-1.386,1.125-1.594,1.125c-0.188,0-1.146-0.729-2.875-2.188c-0.104,0-0.167-0.104-0.188-0.313
			c0.458-0.542,1.438-1.354,2.938-2.438l0.125-0.063v-0.031L4.188,18.844z M20.375,9.656c0.5,0.188,1.271,0.781,2.313,1.781
			c0.729,0.667,1.386,1.188,1.969,1.563c0.125,0.167,0.188,0.333,0.188,0.5c0,0.313-0.614,0.792-1.844,1.438l-7,5.313
			c-1.021,0-2.198,0.5-3.531,1.5c-2.875,1.854-4.833,3.052-5.875,3.594l-0.063-0.125v-0.063c0.042-0.667,1.333-2.042,3.875-4.125
			c0.708-0.667,1.208-1,1.5-1c0.5,0.042,0.781,0.063,0.844,0.063c0.417,0,0.729-0.271,0.938-0.813
			c1.854-1.417,3.667-2.979,5.437-4.688c0.104-0.625,0.303-1.021,0.594-1.188c0.542-0.271,0.813-0.594,0.813-0.969v-0.219
			c0-0.333-0.208-0.75-0.625-1.25v-0.25c0.063-0.75,0.219-1.125,0.469-1.125V9.656z M10.813,1.094
			c0.625,0.292,1.125,0.438,1.5,0.438h4.343c0.167,0.083,0.25,0.177,0.25,0.281c-0.666,1.417-1,2.792-1,4.125
			c-0.583,0.688-0.875,1.448-0.875,2.281c-0.5,3.021-0.833,4.531-1,4.531l-1,0.969c-0.083,0-0.125-0.042-0.125-0.125
			c0.125-2.708,0.208-4.344,0.25-4.906l-0.25-3.625c0.125,0,0.229-0.188,0.313-0.563V4.281c0-0.5-0.646-0.917-1.938-1.25
			c-0.583-0.5-0.875-0.813-0.875-0.938c0-0.417,0.104-0.75,0.313-1H10.813z"/>
	</g>
</g>
<g id="H" display="none">
	<g display="inline">
		<path fill="#999999" d="M5.969,4.531h0.25c0.25,0,1.25,0.802,3,2.406v0.188C8.802,7.542,7.865,8.323,6.407,9.469H6.219
			c-0.229,0-1.229-0.792-3-2.375V6.906c0.208-0.292,1.146-1.104,2.813-2.438L5.969,4.531z M12.532,10.156
			c0.917,0.583,1.375,1.344,1.375,2.281c0.458,4.292,0.802,6.438,1.031,6.438c0.375,0.333,0.563,1.021,0.563,2.063
			c0,0.354,0.271,1.229,0.813,2.625v0.125c-0.041,0.125-0.219,0.188-0.531,0.188h-4.312c-0.125,0-0.563,0.125-1.313,0.375
			c-0.167-0.25-0.25-0.563-0.25-0.938v-0.094c0.333-0.542,1.146-1.021,2.438-1.438c0.25-0.292,0.375-0.604,0.375-0.938
			c0-0.125-0.104-0.323-0.313-0.594l0.188-3.75c0-1-0.083-3.083-0.25-6.25l0.125-0.063v-0.031H12.532z M19.469,1.344h1.188
			c0.417,0,1.073-0.021,1.969-0.063c0.084,0.167,0.146,0.25,0.188,0.25C22.771,2.115,22.75,2.438,22.75,2.5
			c-0.104,8.958-0.302,13.438-0.594,13.438c-0.166,0.938-0.5,3.761-1,8.469c-0.291,1.5-0.479,2.354-0.563,2.563
			c-0.208-0.042-0.427-0.208-0.656-0.5c-0.041-3.604-0.063-6.354-0.063-8.25v-7.688c0-2.792-0.072-5-0.219-6.625
			c0.084-0.146,0.125-0.344,0.125-0.594c0-0.333-0.583-0.698-1.75-1.094c0-0.125-0.083-0.458-0.25-1l0.125-0.063
			C18.636,1.281,19.156,1.344,19.469,1.344z"/>
	</g>
</g>
<g id="I" display="none">
	<g display="inline">
		<path fill="#999999" d="M1.125,7.031c0.042,0,0.063,0.021,0.063,0.063C2.083,7.136,2.74,7.156,3.157,7.156h3.938
			c0.229,0,0.375,0.073,0.438,0.219v0.688c0,0.375-0.198,0.604-0.594,0.688c-0.375,0.458-1,1.458-1.875,3
			C4.396,11.917,3.917,12,3.625,12l-0.063-0.125v-1.438c0-0.25,0.125-0.583,0.375-1c0-0.5-0.708-0.833-2.125-1
			c-0.333,0-0.583-0.458-0.75-1.375c0.042,0,0.063-0.021,0.063-0.063V6.969V7.031z M8.188,1.156
			c0.729,0.125,1.239,0.188,1.531,0.188h1.219c0.417,0,1.073-0.021,1.969-0.063c0.083,0.208,0.146,0.313,0.188,0.313
			c0,0.083-0.021,0.313-0.063,0.688c-0.104,9.208-0.323,13.813-0.656,13.813c-0.563,5.208-0.969,8.313-1.219,9.313
			c-0.104,0.958-0.198,1.479-0.281,1.563c-0.458,0-0.688-0.563-0.688-1.688v-8c0-7.625-0.083-12.104-0.25-13.438
			c0.083-0.125,0.125-0.25,0.125-0.375c0-0.458-0.573-0.875-1.719-1.25l-0.25-1l0.125-0.063H8.188z M18.5,1.406
			c0.667,0.25,1.084,0.375,1.25,0.375h4.688c0.334,0,0.511,0.052,0.531,0.156c0,0.25-0.666,1.75-2,4.5c-0.521,0-0.927,1-1.219,3
			h-0.094c-0.688-0.188-1.031-0.448-1.031-0.781c-0.041-1.021-0.063-1.823-0.063-2.406V5.375c0-0.271,0.125-0.594,0.375-0.969V4.281
			c0-0.5-0.583-0.833-1.75-1c-0.146,0-0.479-0.292-1-0.875V2.281c0.042-0.625,0.146-0.938,0.313-0.938V1.406z"/>
	</g>
</g>
<g id="J" display="none">
	<g display="inline">
		<path fill="#999999" d="M7.282,1.531h0.125C8.344,2.406,9,3.365,9.375,4.406c0.875,0,1.479,0.396,1.813,1.188
			c1.583,2.083,2.375,3.313,2.375,3.688c0,0.458,0.167,0.771,0.5,0.938c0.875,0.625,1.313,1.229,1.313,1.813v0.313
			c-1.208-0.458-1.812-0.833-1.812-1.125c-0.875-1.292-2.5-2.844-4.875-4.656c-0.458-0.208-0.958-0.771-1.5-1.688
			C7.021,4.792,6.854,4.75,6.688,4.75H5.875c-0.167,0-0.688,0.208-1.563,0.625c-0.167,0-0.646-0.083-1.438-0.25V5
			c0.5-0.167,1.958-1.302,4.375-3.406L7.282,1.531z M5.032,11.281c0.729,0.292,1.188,0.438,1.375,0.438h4.563
			c0.063,0,0.125,0.063,0.188,0.188v0.125c-0.5,1.125-0.823,2.531-0.969,4.219C9.583,16.875,9.282,17.792,9.282,19
			c-0.417,3.333-0.688,5.125-0.813,5.375c-0.583,0.583-0.958,0.927-1.125,1.031c0-0.083-0.042-0.125-0.125-0.125
			c0.125-1.813,0.208-3.864,0.25-6.156c0-0.583-0.063-1.875-0.188-3.875c0.208-0.125,0.313-0.354,0.313-0.688V14.5
			c0-0.5-0.688-0.958-2.063-1.375c-0.5-0.417-0.75-0.729-0.75-0.938c0-0.292,0.073-0.625,0.219-1v-0.031L5.032,11.281z
			 M19.281,6.281c0.875,0.667,1.313,1.313,1.313,1.938c0.5,4.542,0.875,6.813,1.125,6.813c0.334,0.229,0.5,0.864,0.5,1.906
			c0.063,0.542,0.344,1.479,0.844,2.813c-0.146,0.125-0.302,0.188-0.469,0.188h-4.25c-0.188,0-0.697,0.125-1.531,0.375
			c-0.125-0.542-0.188-0.896-0.188-1.063c0.375-0.542,1.188-1.021,2.438-1.438c0.25-0.25,0.375-0.458,0.375-0.625v-0.313
			c0-0.208-0.104-0.396-0.313-0.563l0.063-0.25c0.042-1.375,0.104-2.479,0.188-3.313l-0.25-6.438L19.25,6.25L19.281,6.281z"/>
	</g>
</g>
<g id="K" display="none">
	<g display="inline">
		<path fill="#999999" d="M23.969,8.344c0.209,0.042,0.313,0.094,0.313,0.156v4.688c0,0.083-0.041,0.125-0.125,0.125
			c-0.75-0.146-1.125-0.385-1.125-0.719c-0.208-0.125-0.563-0.239-1.063-0.344c-0.375-0.458-0.677-0.688-0.906-0.688h-0.25
			c-0.041,0-0.208,0.042-0.5,0.125c-1.333-0.083-2.25-0.125-2.75-0.125h-13c-0.542,0-1.25,0.021-2.125,0.063
			c-0.5-0.125-0.75-0.344-0.75-0.656C3.021,10.511,7.698,10,15.719,9.438c2.646-0.625,4.813-0.938,6.5-0.938
			c0-0.021,0.573-0.073,1.719-0.156H23.969z M23.906,1.344c0.25,0.083,0.375,0.167,0.375,0.25v4.688l-0.063,0.125
			c-0.541-0.083-1.021-0.375-1.438-0.875c-0.541-0.125-0.927-0.344-1.156-0.656c0-0.125-0.188-0.229-0.563-0.313
			c-0.208,0-0.416,0.063-0.625,0.188c-1.25-0.125-2.322-0.188-3.219-0.188c-3.208,0-8.146,0.021-14.812,0.063
			C1.99,4.479,1.782,4.261,1.782,3.969c1.208-0.417,5.938-0.917,14.187-1.5c1-0.375,3.667-0.75,8-1.125H23.906z M11.282,13.594
			C11.948,13.864,12.469,14,12.844,14h4.75c0.084,0.021,0.125,0.063,0.125,0.125v0.125c-1.25,2.979-1.979,4.479-2.188,4.5
			c-0.333,0-0.666,0.958-1,2.875h-0.063c-0.708-0.125-1.062-0.417-1.062-0.875c-0.042-1.5-0.063-2.583-0.063-3.25l0.375-1.063
			c0-0.5-0.625-0.813-1.875-0.938c-0.583-0.521-0.875-0.833-0.875-0.938C11.032,13.938,11.136,13.614,11.282,13.594v-0.031V13.594z"
			/>
	</g>
</g>
<g id="L" display="none">
	<g display="inline">
		<path fill="#999999" d="M7.219,20.594c0,0.25-0.49,0.729-1.469,1.438c-0.854,0.771-1.386,1.156-1.594,1.156
			c-0.25,0-1.25-0.802-3-2.406l-0.063-0.125c0.125-0.229,1.083-1.031,2.875-2.406c0.042,0,0.104-0.021,0.188-0.063v-0.031
			C4.365,18.156,5.386,18.969,7.219,20.594z M16.906,0.844c0.209,0,1.375,0.958,3.5,2.875c0.667,0.333,1,0.646,1,0.938v0.125
			c0,0.333-0.625,0.813-1.875,1.438l-6.937,5.313c-1.021,0-2.073,0.417-3.156,1.25c-3.875,2.542-5.958,3.813-6.25,3.813H3.157
			v-0.063c0-0.625,1.25-1.958,3.75-4c0.792-0.771,1.313-1.156,1.563-1.156h0.219c0.208,0,0.448,0.021,0.719,0.063
			c0.542-0.083,0.813-0.333,0.813-0.75c1.958-1.458,3.771-3.031,5.437-4.719c0.125-0.104,0.229-0.406,0.313-0.906
			c0.834-0.5,1.25-0.958,1.25-1.375c0-0.333-0.229-0.833-0.688-1.5V2.125c0.125-0.833,0.271-1.25,0.438-1.25L16.906,0.844z
			 M20.406,9.656c0.188,0,1.344,0.938,3.469,2.813c0.584,0.333,0.906,0.667,0.969,1c-0.021,0.375-0.697,0.927-2.031,1.656L16,20.313
			c-1.083,0-2.333,0.552-3.75,1.656c-2.75,1.729-4.636,2.886-5.656,3.469l-0.063-0.125c0-0.667,1.167-1.958,3.5-3.875
			c0.938-0.875,1.552-1.313,1.844-1.313c0.583,0.042,0.906,0.063,0.969,0.063c0.333,0,0.604-0.292,0.813-0.875
			c1.5-1.042,3.292-2.563,5.375-4.563c0.146-0.708,0.428-1.167,0.844-1.375c0.417-0.188,0.625-0.51,0.625-0.969
			c0-0.333-0.229-0.813-0.688-1.438c0.084-0.833,0.25-1.25,0.5-1.25L20.406,9.656z"/>
	</g>
</g>
<g id="M" display="none">
	<g display="inline">
		<path fill="#999999" d="M3.422,1.156c0.729,0.125,1.25,0.188,1.563,0.188h2.188c0.229,0,0.51-0.021,0.844-0.063
			c0.125,0,0.229,0.125,0.313,0.375L8.266,2.063c-0.125,9.333-0.354,14-0.688,14c-0.125,0.625-0.417,3.25-0.875,7.875l-0.625,3
			H6.016c-0.417-0.167-0.625-0.458-0.625-0.875v-2.375c0-4-0.021-9.625-0.063-16.875C5.224,5.042,5.172,4.031,5.172,3.781
			l0.125-0.313c0-0.542-0.583-0.958-1.75-1.25l-0.25-1.063l0.125-0.063V1.156z M12.985,6.656c0.917,0.583,1.375,1.333,1.375,2.25
			c0.459,4.333,0.834,6.5,1.125,6.5c0.334,0.333,0.5,1.083,0.5,2.25c0,0.146,0.271,0.969,0.813,2.469v0.063
			c-0.041,0.125-0.166,0.188-0.375,0.188h-4.437l-1.344,0.344c-0.125-0.313-0.188-0.614-0.188-0.906v-0.125
			c0.333-0.563,1.104-1.021,2.313-1.375c0.333-0.25,0.5-0.489,0.5-0.719v-0.125c0-0.146-0.104-0.386-0.313-0.719L13.141,13
			c0-1-0.083-3.083-0.25-6.25l0.125-0.063L12.985,6.656z M18.922,10.406c0.875,0.667,1.313,1.323,1.313,1.969
			c0.5,4.563,0.896,6.844,1.188,6.844c0.334,0.292,0.5,1.063,0.5,2.313l0.813,2.313v0.063c-0.041,0.125-0.166,0.188-0.375,0.188
			h-4.438l-1.375,0.375h-0.063c0-0.104-0.063-0.427-0.188-0.969c0.292-0.583,0.917-1.021,1.875-1.313c0.667-0.208,1-0.563,1-1.063
			c0-0.146-0.104-0.364-0.313-0.656c0-0.5,0.063-1.729,0.188-3.688c0-0.271-0.083-2.386-0.25-6.344l0.125-0.063v-0.031V10.406z"/>
	</g>
</g>
<g id="N" display="none">
	<g display="inline">
		<path fill="#999999" d="M24.313,12.844l-0.063,0.438v4.188c0,0.083-0.041,0.125-0.125,0.125c-0.416,0-0.854-0.281-1.313-0.844
			c-0.75-0.167-1.125-0.364-1.125-0.594c-0.291-0.208-0.51-0.313-0.656-0.313h-0.156c-0.166,0-0.333,0.063-0.5,0.188
			c-0.916-0.125-1.875-0.188-2.875-0.188H8.688c-1.5,0-3.604,0.021-6.313,0.063c-0.292,0-0.521-0.229-0.688-0.688
			c1.417-0.458,6.125-0.958,14.125-1.5c1.25-0.375,3.219-0.688,5.906-0.938c0.229,0,0.969-0.063,2.219-0.188
			C24.104,12.636,24.229,12.719,24.313,12.844z M24,19.625c0.167,0.063,0.25,0.125,0.25,0.188V24.5l-0.063,0.094
			c-0.458,0-0.958-0.313-1.5-0.938c-0.5,0-0.896-0.229-1.188-0.688c-0.063,0-0.146-0.042-0.25-0.125h-0.438l-0.438,0.125
			c-0.333,0-1.188-0.063-2.563-0.188c-3.833,0.042-6.875,0.063-9.125,0.063H2.375c-0.292,0-0.521-0.208-0.688-0.625
			c0-0.125,1.271-0.354,3.813-0.688c8.25-0.604,12.375-1.063,12.375-1.375c2.375-0.25,4.417-0.438,6.125-0.563v-0.031V19.625z
			 M13.813,1.25c1.583,1.25,2.542,2.042,2.875,2.375v0.188c-1.583,1.417-2.583,2.229-3,2.438c-0.208,0-1.229-0.792-3.063-2.375
			v-0.25c1.792-1.583,2.792-2.375,3-2.375H13.813z"/>
	</g>
</g>
<g id="O" display="none">
	<g display="inline">
		<path fill="#999999" d="M15.078,9.656c0.209,0,1.375,0.938,3.5,2.813c0.667,0.333,1,0.688,1,1.063
			c-0.041,0.313-0.688,0.813-1.938,1.5l-6.937,5.25c-1.063,0-2.313,0.552-3.75,1.656c-2.542,1.625-4.417,2.771-5.625,3.438
			L1.266,25.25c0-0.667,1.167-1.958,3.5-3.875c0.938-0.875,1.552-1.313,1.844-1.313c0.104,0,0.406,0.021,0.906,0.063
			c0.417,0,0.698-0.25,0.844-0.75c1.875-1.417,3.646-2.917,5.313-4.5c0.125-0.167,0.281-0.542,0.468-1.125
			c0.771-0.417,1.156-0.875,1.156-1.375c0-0.375-0.208-0.813-0.625-1.313v-0.188c0-0.792,0.146-1.188,0.438-1.188V9.656H15.078z
			 M9.016,1.656c1,0.083,1.833,0.125,2.5,0.125h3.781c0.146,0.042,0.219,0.188,0.219,0.438v0.375c0,0.375-0.271,0.688-0.813,0.938
			c-0.583,0.917-1.156,1.854-1.718,2.813c-0.146,0.083-0.625,0.188-1.438,0.313l-0.063-0.125v-1l-0.063-0.375
			c0.125-0.542,0.25-0.875,0.375-1V3.844c0-0.333-0.646-0.583-1.938-0.75c-0.5-0.146-0.75-0.469-0.75-0.969
			c-0.083,0-0.136-0.135-0.156-0.406V1.656H9.016z M18.266,1.344c0.709,0.25,1.188,0.375,1.438,0.375h4.625
			c0.209,0,0.344,0.073,0.406,0.219c-1.208,2.833-1.896,4.313-2.063,4.438c-0.458,0-0.833,0.979-1.125,2.938l-0.125,0.063
			c-0.666-0.125-1-0.458-1-1c-0.041-0.542-0.083-1.542-0.125-3c0.084-0.333,0.229-0.729,0.438-1.188c0-0.5-0.583-0.823-1.75-0.969
			c-0.166,0-0.521-0.313-1.063-0.938c0.104-0.667,0.209-1,0.313-1L18.266,1.344z"/>
	</g>
</g>
<g id="P" display="none">
	<g display="inline">
		<path fill="#999999" d="M5.219,1.531c0.875,0.083,1.688,0.125,2.438,0.125h3.75c0.167,0.042,0.25,0.229,0.25,0.563v0.063
			c0,0.625-0.208,0.938-0.625,0.938c-0.25,0.25-0.896,1.281-1.938,3.094l-1.375,0.25C7.677,6.479,7.657,6.417,7.657,6.375
			c0-0.333-0.021-0.771-0.063-1.313c0.083-0.417,0.219-0.75,0.406-1V3.938c0-0.458-0.458-0.729-1.375-0.813
			c-0.833-0.146-1.25-0.385-1.25-0.719c-0.083-0.333-0.167-0.594-0.25-0.781L5.25,1.563L5.219,1.531z M9.157,11.719h0.188
			c1.458,1.125,2.417,1.917,2.875,2.375v0.188c-1.771,1.583-2.771,2.375-3,2.375H9.157c-0.208,0-1.208-0.771-3-2.313v-0.25
			C7.948,12.511,8.948,11.719,9.157,11.719v-0.031V11.719z M15.844,1.594h4.625c0.229,0,0.375,0.073,0.438,0.219
			c-1.271,2.958-1.947,4.438-2.031,4.438c-0.5,0-0.875,0.979-1.125,2.938L17.625,9.25c-0.729-0.146-1.094-0.489-1.094-1.031V7.656
			c0-0.583-0.021-1.375-0.063-2.375c0.104-0.375,0.25-0.792,0.438-1.25c0-0.458-0.666-0.771-2-0.938l-0.813-0.875l0.188-1
			C15.115,1.469,15.636,1.594,15.844,1.594z"/>
	</g>
</g>
<g id="Q" display="none">
	<g display="inline">
		<path fill="#999999" d="M15.234,9.656c0.5,0.188,1.271,0.781,2.313,1.781c0.625,0.625,1.261,1.125,1.906,1.5
			c0.167,0.188,0.25,0.386,0.25,0.594c0,0.292-0.625,0.771-1.875,1.438l-7,5.313c-1.063,0-2.313,0.552-3.75,1.656
			c-2.5,1.604-4.375,2.761-5.625,3.469l-0.063-0.125c0-0.708,1.292-2.104,3.875-4.188c0.667-0.667,1.167-1,1.5-1
			c0.5,0.042,0.781,0.063,0.844,0.063c0.417,0,0.719-0.292,0.906-0.875c1.5-1.021,3.271-2.511,5.313-4.469
			c0.125-0.229,0.26-0.573,0.406-1.031c0.771-0.458,1.156-0.875,1.156-1.25V12.5c0-0.5-0.208-0.979-0.625-1.438v-0.25
			c0-0.667,0.146-1.042,0.438-1.125V9.656H15.234z M5.547,5.156c0.208,0,1.208,0.792,3,2.375L8.61,7.656
			c-0.563,0.625-1.573,1.448-3.031,2.469H5.454C5.037,9.938,4.026,9.136,2.422,7.719V7.594c1.792-1.625,2.813-2.438,3.063-2.438
			H5.547z M19.734,1.406h4.438c0.229,0,0.386,0.083,0.469,0.25c-0.646,1.417-0.969,2.792-0.969,4.125c-0.666,0.729-1,1.761-1,3.094
			c-0.416,3.458-0.688,5.188-0.813,5.188c-0.458,0.542-0.813,0.886-1.063,1.031c-0.063,0-0.094-0.042-0.094-0.125
			c0.146-4.042,0.219-6.125,0.219-6.25c-0.104-1.854-0.156-3.073-0.156-3.656c0.188-0.333,0.281-0.604,0.281-0.813
			c0-0.458-0.708-0.917-2.125-1.375c-0.5-0.5-0.75-0.781-0.75-0.844c0.104-0.667,0.209-1,0.313-1
			C19.172,1.281,19.589,1.406,19.734,1.406z"/>
	</g>
</g>
<g id="R" display="none">
	<g display="inline">
		<path fill="#999999" d="M2.438,1.156H2.5c0.708,0.125,1.229,0.188,1.563,0.188h2.25c0.208,0,0.521-0.021,0.938-0.063l0.188,0.25
			c-0.146,9.542-0.344,14.313-0.594,14.313c-0.167,0.458-0.479,3.125-0.938,8l-0.625,3.125H5.219
			c-0.417-0.208-0.625-0.438-0.625-0.688C4.552,16.364,4.532,10.156,4.532,7.656c0-0.333-0.052-1.542-0.156-3.625l0.063-0.75
			c0-0.271-0.542-0.594-1.625-0.969C2.604,1.896,2.5,1.521,2.5,1.188L2.438,1.156z M9.5,10.344c0.833,0.083,1.625,0.125,2.375,0.125
			h3.875c0.125,0.042,0.188,0.167,0.188,0.375v0.594c0,0.25-0.271,0.5-0.813,0.75c-1.125,1.917-1.708,2.875-1.75,2.875
			c-0.792,0.146-1.25,0.219-1.375,0.219l-0.063-0.125V13.75c0-0.146,0.125-0.531,0.375-1.156c0-0.417-0.667-0.708-2-0.875
			c-0.5-0.125-0.75-0.458-0.75-1c-0.063,0-0.104-0.125-0.125-0.375c0.042,0,0.063-0.021,0.063-0.063V10.25V10.344z M17.438,2.781
			c0.688,0.292,1.146,0.438,1.375,0.438h4.375c0.25,0.021,0.375,0.083,0.375,0.188l-0.75,2.344
			c-0.125,1.292-0.229,1.969-0.313,2.031c-0.5,0.292-0.875,1.958-1.125,5c-0.25,2.083-0.438,3.125-0.563,3.125
			c-0.333,0.375-0.688,0.708-1.063,1c0-0.083-0.041-0.125-0.125-0.125c0.167-3.167,0.25-5.25,0.25-6.25l-0.188-3.688
			C19.896,6.511,20,6.261,20,6.094V5.969c0-0.5-0.666-0.938-2-1.313l-0.813-0.813V3.719c0-0.417,0.084-0.75,0.25-1V2.781z"/>
	</g>
</g>
<g id="S" display="none">
	<g display="inline">
		<path fill="#999999" d="M2.329,10.781c0.688,0.292,1.219,0.438,1.594,0.438h4.344c0.083,0.021,0.125,0.063,0.125,0.125v0.063
			l-0.75,2.344c-0.125,1.458-0.271,2.188-0.438,2.188c-0.375,0.333-0.708,1.875-1,4.625c-0.208,2.375-0.458,3.563-0.75,3.563
			l-0.813,0.75H4.579l-0.125-0.063c0.125-1.854,0.208-3.927,0.25-6.219c0-0.417-0.063-1.688-0.188-3.813
			c0.125,0,0.229-0.188,0.313-0.563v-0.188c0-0.458-0.667-0.896-2-1.313l-0.813-0.813v-0.063c0-0.542,0.104-0.875,0.313-1v-0.031
			V10.781z M8.391,1.156c0.667,0.125,1.167,0.188,1.5,0.188h2.25c0.208,0,0.521-0.021,0.938-0.063l0.188,0.25
			c-0.167,9.542-0.386,14.313-0.656,14.313c-0.208,0.875-0.521,3.563-0.938,8.063c-0.042,0.104-0.25,1.136-0.625,3.094h-0.063
			c-0.417-0.167-0.625-0.479-0.625-0.938c0-1.938-0.021-8.167-0.063-18.688L10.11,4.063c0.042-0.354,0.063-0.635,0.063-0.844
			c0-0.333-0.563-0.667-1.688-1c-0.167-0.625-0.25-0.979-0.25-1.063L8.36,1.094L8.391,1.156z M17.953,1.781
			c0.417,0.188,0.875,0.323,1.375,0.406h4.5c0.125,0,0.188,0.083,0.188,0.25c-0.646,1.375-0.969,2.75-0.969,4.125
			c-0.583,0.333-0.979,1.729-1.188,4.188c-0.25,2.875-0.541,4.313-0.875,4.313c-0.416,0.5-0.719,0.75-0.906,0.75l-0.063-0.125
			l0.25-6.25c-0.125-1.938-0.188-3.177-0.188-3.719C20.287,5.511,20.391,5.271,20.391,5c0-0.5-0.688-0.958-2.063-1.375
			c-0.541-0.5-0.813-0.792-0.813-0.875c0.084-0.667,0.209-1,0.375-1L17.953,1.781z"/>
	</g>
</g>
<g id="T">
	<g>
		<path fill="#999999" d="M24.031,19.156c0.167,0.042,0.25,0.094,0.25,0.156V24l-0.063,0.125c-0.75-0.167-1.125-0.375-1.125-0.625
			c-0.166-0.167-0.563-0.323-1.188-0.469c-0.229-0.417-0.51-0.625-0.844-0.625h-0.25l-0.438,0.125c-0.333,0-1.188-0.063-2.563-0.188
			c-3.833,0.042-6.875,0.063-9.125,0.063H2.375c-0.292,0-0.511-0.208-0.656-0.625c1.167-0.458,5.792-0.958,13.875-1.5
			c2.709-0.646,4.854-0.969,6.438-0.969C22.031,19.271,22.698,19.219,24.031,19.156v-0.031V19.156z M9.407,4.281
			c0.688,0.229,1.104,0.344,1.25,0.344h4.437c0.229,0,0.375,0.083,0.438,0.25c-0.666,1.542-1,2.958-1,4.25
			c-0.625,0.583-0.937,1.542-0.937,2.875c-0.417,3.583-0.708,5.375-0.875,5.375l-1,0.938c-0.083,0-0.125-0.042-0.125-0.125
			c0.104-3.271,0.156-5.333,0.156-6.188c0-0.938-0.052-2.198-0.156-3.781c0.104,0,0.198-0.188,0.281-0.563V7.469
			c0-0.5-0.667-0.938-2-1.313c-0.542-0.458-0.813-0.792-0.813-1c0.104-0.583,0.208-0.875,0.313-0.875H9.407z M17.344,1.531
			c0.667,0.271,1.188,0.406,1.563,0.406h4.313c0.063,0,0.125,0.063,0.188,0.188v0.063c-0.625,1.458-0.938,2.833-0.938,4.125
			c-0.666,0.708-1,1.802-1,3.281c-0.416,3.417-0.708,5.125-0.875,5.125l-0.938,0.875h-0.063l-0.125-0.063
			c0.167-3.208,0.25-5.313,0.25-6.313l-0.188-3.75c0.125,0,0.219-0.229,0.281-0.688c0-0.542-0.688-1-2.063-1.375L17,2.594V2.469
			c0.021-0.625,0.115-0.938,0.281-0.938H17.344z"/>
	</g>
</g>
<g id="U" display="none">
	<g display="inline">
		<path fill="#999999" d="M4.844,1.844c0.833,0.771,1.25,1.344,1.25,1.719c0.5,4.667,0.864,7,1.094,7
			c0.292,0.333,0.438,0.667,0.438,1c0.021,1.021,0.323,2.261,0.906,3.719v0.063c0,0.063-0.063,0.136-0.188,0.219H3.782
			c-0.208,0-0.667,0.146-1.375,0.438c-0.104,0-0.188-0.333-0.25-1v-0.125c0.313-0.563,1.094-1.031,2.344-1.406
			c0.292-0.292,0.438-0.542,0.438-0.75v-0.125c0-0.125-0.104-0.354-0.313-0.688l0.188-3.688c0-0.875-0.083-2.969-0.25-6.281
			L4.75,1.813V1.781L4.844,1.844z M11.907,0.719c0.708,0.292,1.167,0.438,1.375,0.438h4.562c0.063,0,0.125,0.063,0.188,0.188v0.125
			c-0.625,1.479-0.938,2.865-0.938,4.156c-0.666,0.667-1,1.771-1,3.313c-0.416,3.292-0.708,4.938-0.875,4.938
			c-0.375,0.458-0.719,0.813-1.031,1.063c0-0.083-0.041-0.125-0.125-0.125c0.125-1.813,0.209-3.885,0.25-6.219
			c0-0.542-0.063-1.813-0.188-3.813c0.209-0.125,0.313-0.354,0.313-0.688V4.031c0-0.5-0.687-0.958-2.062-1.375
			c-0.5-0.458-0.75-0.719-0.75-0.781V1.813c0-0.375,0.083-0.729,0.25-1.063L11.907,0.719z M20.219,1.344h3.25
			c0.042,0,0.125,0.083,0.25,0.25c0,0.083-0.021,0.313-0.063,0.688c-0.146,9.083-0.322,13.625-0.531,13.625
			c-0.5,4.792-1.041,8.489-1.625,11.094h-0.063c-0.375,0-0.583-0.364-0.625-1.094v-7.313c0-8.542-0.083-13.438-0.25-14.688
			c0.084-0.167,0.125-0.313,0.125-0.438c0-0.458-0.583-0.854-1.75-1.188c0-0.063-0.072-0.417-0.219-1.063
			c0.042,0,0.063-0.021,0.063-0.063C19.406,1.281,19.886,1.344,20.219,1.344z"/>
	</g>
</g>
<g id="V" display="none">
	<g display="inline">
		<path fill="#999999" d="M4.516,0.938C5.474,1.729,6.162,2.667,6.579,3.75l1.375,0.5c1.875,2.729,2.813,4.146,2.813,4.25
			c0.021,0.75,0.219,1.125,0.594,1.125c0.875,0.667,1.313,1.365,1.313,2.094l-0.125,0.063c-1.25-0.583-1.875-1.042-1.875-1.375
			c-1.083-1.417-2.5-2.771-4.25-4.063c-0.792-0.5-1.458-1.208-2-2.125C4.047,4.136,3.776,4.094,3.61,4.094
			c-0.583,0-1.24,0.229-1.969,0.688c-1-0.146-1.5-0.26-1.5-0.344c0.458-0.146,1.938-1.323,4.438-3.531L4.516,0.938z M21.266,2.813
			h0.063c0.584,0.333,1.604,1.167,3.063,2.5c0.917,0.625,1.396,1.042,1.438,1.25v0.125c0,0.333-0.583,0.792-1.75,1.375
			c-2.125,1.583-4.5,3.396-7.125,5.438c-1.083,0-2.125,0.417-3.125,1.25c-3.333,2.125-5.417,3.396-6.25,3.813l-0.063-0.125v-0.063
			c0-0.688,1.604-2.302,4.813-4.844c0.125-0.125,0.313-0.219,0.563-0.281c0.292,0.042,0.521,0.063,0.688,0.063h0.188
			c0.417,0,0.677-0.25,0.781-0.75c1.771-1.292,3.615-2.875,5.531-4.75c0.104-0.583,0.323-0.979,0.656-1.188
			c0.542-0.271,0.813-0.573,0.813-0.906V5.531c0-0.333-0.229-0.792-0.688-1.375c0-0.5,0.146-0.938,0.438-1.313L21.266,2.813z
			 M19.516,19.031c0.979,0.083,1.875,0.125,2.688,0.125h3.5c0.167,0.021,0.25,0.219,0.25,0.594c0,0.5-0.188,0.802-0.563,0.906
			c-0.125,0-0.781,1-1.969,3c-0.208,0.083-0.666,0.188-1.375,0.313l-0.063-0.125c-0.041-0.729-0.063-1.188-0.063-1.375
			c0-0.125,0.125-0.521,0.375-1.188c0-0.417-0.646-0.698-1.938-0.844c-0.458-0.125-0.688-0.354-0.688-0.688
			c-0.041,0-0.114-0.229-0.219-0.688L19.547,19v-0.031L19.516,19.031z"/>
	</g>
</g>
<g id="W" display="none">
	<g display="inline">
		<path fill="#999999" d="M23.844,18.844c0.292,0.063,0.438,0.146,0.438,0.25v4.75h-0.125c-0.458,0-0.896-0.25-1.313-0.75
			c-0.583-0.208-0.938-0.364-1.063-0.469c0-0.208-0.25-0.396-0.75-0.563h-0.063c-0.208,0-0.416,0.063-0.625,0.188
			c-1.166-0.125-2.188-0.188-3.063-0.188h-1.125c-3.125,0-7.708,0.021-13.75,0.063c-0.417-0.167-0.625-0.396-0.625-0.688v-0.063
			C3.24,21,7.948,20.521,15.906,19.938c1.167-0.375,3.375-0.698,6.625-0.969c0.417,0,0.875-0.042,1.375-0.125v-0.031L23.844,18.844z
			 M10.094,6.031h0.188c0.833,0.729,1.5,1.667,2,2.813c1,0.208,1.5,0.458,1.5,0.75c1.792,2.458,2.687,3.792,2.687,4
			c0.042,0.25,0.063,0.521,0.063,0.813c1.167,0.708,1.75,1.406,1.75,2.094v0.188c0,0.083-0.041,0.125-0.125,0.125
			c-1.146-0.5-1.822-1.042-2.031-1.625c-1.5-1.708-2.979-3.052-4.437-4.031c-0.708-0.5-1.25-1.125-1.625-1.875
			c-0.5-0.083-0.802-0.125-0.906-0.125c-0.5,0-1.156,0.229-1.969,0.688L5.75,9.625V9.563C6.563,9.083,8,7.906,10.063,6.031H10.094z
			 M17.781,3.969c0.917,0.083,1.792,0.125,2.625,0.125h3.563c0.125,0.042,0.188,0.167,0.188,0.375v0.5
			c0,0.375-0.25,0.656-0.75,0.844l-1.75,2.844C21.49,8.74,21,8.844,20.188,8.969l-0.063-0.125V7.406
			c0-0.188,0.125-0.552,0.375-1.094c0-0.417-0.666-0.708-2-0.875c-0.5-0.146-0.75-0.469-0.75-0.969
			c-0.083,0-0.125-0.125-0.125-0.375l0.125-0.063L17.781,3.969z"/>
	</g>
</g>
<g id="X" display="none">
	<g display="inline">
		<path fill="#999999" d="M23.609,18.781c0.25,0.083,0.375,0.167,0.375,0.25v4.688l-0.063,0.125
			C23.381,23.781,22.901,23.5,22.484,23c-0.541-0.125-0.938-0.344-1.188-0.656c0-0.125-0.188-0.229-0.563-0.313h-0.063
			c-0.208,0-0.416,0.063-0.625,0.188c-1.166-0.125-2.188-0.188-3.063-0.188h-1.125c-3.125,0-7.708,0.021-13.75,0.063
			c-0.417-0.167-0.625-0.396-0.625-0.688c1.104-0.417,5.625-0.896,13.562-1.438c2.917-0.625,5.063-0.938,6.438-0.938
			c0.125-0.042,0.854-0.125,2.188-0.25V18.75L23.609,18.781z M7.704,5.094v0.188C5.87,6.906,4.86,7.719,4.672,7.719
			c-0.167,0-1.167-0.792-3-2.375L1.61,5.219c0.417-0.542,1.396-1.375,2.938-2.5h0.125C4.88,2.719,5.891,3.511,7.704,5.094z
			 M20.047,2.844h0.125c0.188,0,1.406,0.99,3.656,2.969c0.375,0,0.646,0.292,0.813,0.875C24.558,7.021,23.984,7.458,22.922,8
			c-2.208,1.604-4.614,3.417-7.219,5.438c-1.083,0-2.25,0.5-3.5,1.5C8.474,17.313,6.505,18.5,6.297,18.5
			c-0.042-0.083-0.063-0.146-0.063-0.188c0-0.688,1.677-2.354,5.031-5c0.229-0.042,0.344-0.083,0.344-0.125l0.313,0.063h0.688
			c0.333,0,0.563-0.25,0.688-0.75c1.729-1.25,3.542-2.813,5.437-4.688c0.125-0.208,0.229-0.521,0.313-0.938
			c0.792-0.417,1.188-0.854,1.188-1.313V5.438c0-0.25-0.208-0.708-0.625-1.375V4c0.021-0.708,0.156-1.104,0.406-1.188L20.047,2.844z
			"/>
	</g>
</g>
<g id="Y" display="none">
	<g display="inline">
		<path fill="#999999" d="M4.157,2.906C4.74,3.136,5.136,3.25,5.344,3.25h4.688c0.333,0,0.51,0.063,0.531,0.188v0.125
			C9.396,6.354,8.688,7.833,8.438,8c-0.417,0-0.792,0.979-1.125,2.938H7.188c-0.667-0.167-1-0.479-1-0.938
			C6.146,8.417,6.125,7.354,6.125,6.813L6.5,5.75V5.563c0-0.333-0.646-0.625-1.938-0.875C4.021,4.229,3.75,3.948,3.75,3.844
			c0-0.667,0.125-1,0.375-1L4.157,2.906z M11.844,9.781c0.833,0.625,1.25,1.198,1.25,1.719c0.5,4.667,0.885,7,1.156,7
			c0.334,0.292,0.5,1,0.5,2.125c0,0.208,0.271,1.063,0.813,2.563v0.094c-0.041,0.125-0.166,0.188-0.375,0.188H10.75
			c-0.125,0-0.563,0.125-1.313,0.375c-0.104,0-0.188-0.333-0.25-1v-0.063c0.375-0.583,1.135-1.042,2.281-1.375
			c0.333-0.25,0.5-0.5,0.5-0.75V20.5c-0.083-0.375-0.188-0.563-0.313-0.563c0.125-1.979,0.188-3.25,0.188-3.813
			c0-1.458-0.083-3.531-0.25-6.219l0.188-0.094V9.781H11.844z M16.094,0.094c0.688,0.292,1.146,0.438,1.375,0.438h4.563
			c0.063,0,0.125,0.063,0.188,0.188v0.063c-0.625,1.479-0.938,2.865-0.938,4.156c-0.625,0.667-0.938,1.563-0.938,2.688
			c-0.416,3.521-0.708,5.396-0.875,5.625l-1.063,1c-0.083,0-0.125-0.042-0.125-0.125c0.167-3.521,0.25-5.594,0.25-6.219
			l-0.188-3.688c0.209-0.313,0.313-0.594,0.313-0.844c0-0.5-0.666-0.938-2-1.313L15.844,1.25V1.063c0-0.375,0.084-0.688,0.25-0.938
			V0.094z"/>
	</g>
</g>
<g id="Z" display="none">
	<g display="inline">
		<path fill="#999999" d="M1.61,0.781h0.063c0.813,0.25,1.333,0.375,1.563,0.375H7.61c0.063,0,0.146,0.083,0.25,0.25
			C7.235,2.781,6.922,4.136,6.922,5.469C6.214,6.302,5.86,7.511,5.86,9.094c-0.375,3.208-0.646,4.813-0.813,4.813l-1,0.969
			c-0.083,0-0.125-0.042-0.125-0.125l0.25-6.313C4.047,6.813,3.985,5.552,3.985,4.656c0.083,0,0.188-0.208,0.313-0.625
			c0-0.542-0.708-1.021-2.125-1.438l-0.75-0.813c0-0.104,0.063-0.448,0.188-1.031V0.781z M10.36,1.156
			c0.667,0.125,1.167,0.188,1.5,0.188h3.312c0.021,0,0.094,0.063,0.219,0.188c-0.208,9.542-0.427,14.313-0.656,14.313
			c-0.208,0.708-0.541,3.479-1,8.313c-0.333,1.708-0.542,2.646-0.625,2.813h-0.063c-0.104,0-0.281-0.167-0.531-0.5
			c-0.042-4.833-0.063-8.531-0.063-11.094V8.5c0-1.167-0.083-2.708-0.25-4.625c0.083-0.125,0.125-0.25,0.125-0.375V3.438
			c0-0.5-0.5-0.854-1.5-1.063c-0.167,0-0.344-0.396-0.531-1.188c0.042,0,0.063-0.021,0.063-0.063V1.094V1.156z M19.797,1.156h4.563
			c0.063,0,0.156,0.083,0.281,0.25c-0.541,1-0.906,2.438-1.094,4.313c-0.333,0-0.635,0.927-0.906,2.781
			c-0.333,3.667-0.646,5.5-0.938,5.5c-0.5,0.5-0.833,0.75-1,0.75c0.104-3.5,0.156-5.583,0.156-6.25c0-0.833-0.052-2.104-0.156-3.813
			c0.104,0,0.198-0.188,0.281-0.563v-0.25c0-0.458-0.604-0.854-1.813-1.188c-0.291-0.188-0.625-0.489-1-0.906
			c0-0.375,0.084-0.729,0.25-1.063C19.151,1.011,19.609,1.156,19.797,1.156z"/>
	</g>
</g>
<g id="aa" display="none">
	<g display="inline">
		<path fill="#999999" d="M4.407,2.531h0.375C6.24,3.656,7.198,4.448,7.657,4.906v0.188c-0.167,0.208-1.125,1-2.875,2.375H4.594
			c-0.25,0-1.25-0.792-3-2.375v-0.25C1.74,4.698,2.677,3.938,4.407,2.563V2.531z M16.844,1.406c0.188,0,1.344,0.938,3.469,2.813
			c0.625,0.354,0.959,0.615,1,0.781v0.313c0,0.333-0.5,0.729-1.5,1.188c-2.208,1.646-4.635,3.5-7.281,5.563
			c-1.042,0-2.104,0.417-3.188,1.25c-3.417,2.25-5.49,3.521-6.219,3.813L3.063,17c0-0.667,1.625-2.313,4.875-4.938
			c0.125-0.104,0.313-0.188,0.563-0.25l0.313,0.063h0.531c0.375,0,0.646-0.229,0.813-0.688l3.438-2.844
			c1.5-1.208,2.25-2.083,2.25-2.625c0-0.104,0.375-0.448,1.125-1.031c0.084-0.25,0.125-0.406,0.125-0.469
			c0-0.417-0.229-0.927-0.688-1.531c0-0.542,0.146-0.979,0.438-1.313V1.406z M20.594,9.781c0.875,0.667,1.313,1.313,1.313,1.938
			c0.5,4.542,0.875,6.813,1.125,6.813c0.334,0.25,0.5,0.886,0.5,1.906c0.042,0.542,0.334,1.5,0.875,2.875
			c-0.146,0.125-0.302,0.188-0.469,0.188h-4.406c-0.125,0-0.563,0.125-1.313,0.375c-0.166-0.375-0.25-0.729-0.25-1.063
			c0.334-0.542,1.146-1.021,2.438-1.438c0.25-0.229,0.406-0.489,0.469-0.781c-0.208-0.542-0.313-0.823-0.313-0.844
			c0-0.729,0.063-1.886,0.188-3.469L20.5,9.875l0.125-0.031V9.813L20.594,9.781z"/>
	</g>
</g>
<g id="ei" display="none">
	<g display="inline">
		<path fill="#999999" d="M6.813,3.094c0.833,0.813,1.5,1.761,2,2.844c0.854,0,1.531,0.5,2.031,1.5
			c1.417,1.958,2.125,3.011,2.125,3.156l0.125,0.688v0.188c1.167,0.792,1.75,1.552,1.75,2.281v0.125l-0.063,0.094
			c-1.25-0.542-1.875-1-1.875-1.375c-1.333-1.646-2.729-2.979-4.188-4C7.782,7.969,7.146,7.313,6.813,6.625
			C6.75,6.417,6.469,6.313,5.969,6.313H5.563C5.063,6.313,4.5,6.542,3.875,7c-1-0.167-1.5-0.292-1.5-0.375V6.563
			c0.5-0.125,1.917-1.25,4.25-3.375c0.063-0.042,0.156-0.063,0.281-0.063L6.813,3.094z M18.625,8.875
			c0.417,0.146,1.553,1.063,3.406,2.75c0.625,0.354,0.979,0.656,1.063,0.906v0.219c0,0.375-0.479,0.771-1.438,1.188
			c-2.041,1.521-4.51,3.406-7.406,5.656c-1,0-1.958,0.354-2.875,1.063c-3.542,2.333-5.708,3.667-6.5,4l-0.063-0.094
			c0-0.729,1.667-2.427,5-5.094c0.167-0.083,0.292-0.125,0.375-0.125c0.417,0.042,0.739,0.063,0.969,0.063
			c0.375,0,0.635-0.271,0.781-0.813c1.583-1.104,3.375-2.636,5.375-4.594c0.167-0.271,0.271-0.573,0.313-0.906
			c0.834-0.542,1.25-1.021,1.25-1.438c0-0.292-0.229-0.792-0.688-1.5c0.104-0.833,0.25-1.25,0.438-1.25V8.875z M20.688,19.406
			c0.417,0.208,1.428,1.021,3.031,2.438v0.188c-1.813,1.604-2.844,2.406-3.094,2.406c-0.208,0-1.197-0.802-2.969-2.406l-0.063-0.125
			c0.292-0.417,1.281-1.25,2.969-2.5H20.688v-0.031V19.406z"/>
	</g>
</g>
<g id="ii" display="none">
	<g display="inline">
		<path fill="#999999" d="M5.313,3.094c1.042,0.938,1.656,1.813,1.844,2.625c0,0.146,0.354,0.281,1.063,0.406
			c0.292,0.125,0.938,0.938,1.938,2.438c0.917,1.292,1.375,2.031,1.375,2.219c0,0.542,0.188,0.896,0.563,1.063
			c0.833,0.583,1.25,1.261,1.25,2.031l-0.063,0.094c-1.292-0.583-1.938-1.063-1.938-1.438c-1-1.375-2.396-2.708-4.188-4
			C6.261,7.906,5.646,7.25,5.313,6.563C5.25,6.354,4.969,6.25,4.469,6.25H4.063c-0.479,0-1.052,0.229-1.719,0.688
			c-1-0.167-1.5-0.292-1.5-0.375V6.5c0.5-0.125,1.896-1.229,4.188-3.313c0.104-0.063,0.188-0.094,0.25-0.094H5.313z M10.813,16.625
			v0.25c-1.792,1.583-2.792,2.375-3,2.375c-0.229,0-1.25-0.792-3.063-2.375v-0.188c0.958-0.896,1.958-1.698,3-2.406V14.25
			C7.958,14.25,8.979,15.042,10.813,16.625z M20.625,8.875c0.563,0.25,1.553,1.042,2.969,2.375c1.042,0.729,1.563,1.208,1.563,1.438
			v0.063c0,0.333-0.708,0.886-2.125,1.656l-6.781,5.188c-1.083,0-2.104,0.417-3.062,1.25c-4.042,2.542-6.125,3.813-6.25,3.813
			l-0.063-0.094V24.5c0-0.708,1.688-2.406,5.063-5.094c0.083,0,0.167-0.021,0.25-0.063c0.417,0.042,0.739,0.063,0.969,0.063
			c0.333,0,0.594-0.271,0.781-0.813c1.75-1.292,3.562-2.864,5.437-4.719c0.125-0.583,0.344-0.979,0.656-1.188
			c0.542-0.25,0.813-0.563,0.813-0.938v-0.063c0-0.458-0.208-0.938-0.625-1.438V10c0-0.542,0.115-0.917,0.344-1.125H20.625z
			 M12.25,1c0.708,0.292,1.167,0.438,1.375,0.438h4.562c0.063,0,0.125,0.063,0.188,0.188V1.75c-0.5,1.104-0.822,2.49-0.969,4.156
			c-0.5,0.333-0.896,1.729-1.188,4.188c-0.25,1.875-0.563,2.813-0.938,2.813c0,0.063-0.229,0.302-0.688,0.719L14.406,13.5
			c0.167-2.167,0.25-3.771,0.25-4.813c0-0.5-0.063-1.739-0.188-3.719c0.209-0.167,0.313-0.396,0.313-0.688V4.219
			c0-0.521-0.688-0.979-2.062-1.375c-0.5-0.458-0.75-0.771-0.75-0.938c0-0.333,0.083-0.656,0.25-0.969L12.25,1z"/>
	</g>
</g>
<g id="ah" display="none">
	<g display="inline">
		<path fill="#999999" d="M8.141,1.125c0.167,0,0.281,0.042,0.344,0.125c0,0.042,0,0.083,0,0.125c0,0.063-0.011,0.136-0.031,0.219
			c-0.5,1.167-0.792,1.896-0.875,2.188c-0.063,0.25-0.167,1.104-0.313,2.563C7.245,6.386,7.193,6.458,7.11,6.563
			C6.985,6.708,6.891,6.844,6.829,6.969C6.558,7.386,6.36,7.906,6.235,8.531C5.651,13.281,5.329,15.771,5.266,16
			c-0.063,0.208-0.531,0.688-1.406,1.438C3.818,17.479,3.787,17.5,3.766,17.5c-0.083,0-0.125-0.063-0.125-0.188v-0.094
			c0.208-3.083,0.313-5.354,0.313-6.813c0-0.333,0-0.614,0-0.844l-0.25-4.188c0.292-0.271,0.438-0.552,0.438-0.844
			c0-0.125-0.031-0.25-0.094-0.375C3.901,3.781,3.579,3.511,3.079,3.344l-1.25-0.469C1.62,2.854,1.224,2.531,0.641,1.906
			C0.62,1.844,0.61,1.771,0.61,1.688c0-0.25,0.083-0.625,0.25-1.125c0.958,0.375,1.542,0.563,1.75,0.563h5.688H8.141z M16.578,9.656
			c0.146,0,0.25,0.042,0.313,0.125c0.021,0.042,0.031,0.083,0.031,0.125c0,0.063-0.021,0.125-0.063,0.188
			c-0.5,1.208-0.791,1.958-0.875,2.25c-0.063,0.25-0.156,1.104-0.281,2.563c-0.021,0.042-0.094,0.114-0.219,0.219
			c-0.104,0.125-0.197,0.25-0.281,0.375c-0.291,0.417-0.5,0.938-0.625,1.563c-0.583,3.563-0.917,5.469-1,5.719
			c-0.063,0.208-0.521,0.688-1.375,1.438c-0.063,0.042-0.104,0.063-0.125,0.063c-0.063,0-0.094-0.083-0.094-0.25v-0.063
			c0.188-3,0.281-4.875,0.281-5.625v-0.188l-0.25-4.188c0.292-0.271,0.438-0.552,0.438-0.844c0-0.125-0.021-0.271-0.063-0.438
			c-0.167-0.375-0.5-0.635-1-0.781l-1.281-0.5c-0.208-0.021-0.604-0.344-1.188-0.969C8.88,10.396,8.86,10.323,8.86,10.219
			c0-0.25,0.083-0.625,0.25-1.125c0.958,0.375,1.542,0.563,1.75,0.563h5.687V9.625L16.578,9.656z M23.703,1.219
			c0.125,0,0.219,0.042,0.281,0.125c0.021,0.042,0.031,0.104,0.031,0.188c0,0.063-0.01,0.125-0.031,0.188
			c-0.5,1.167-0.791,1.896-0.875,2.188c-0.083,0.25-0.188,1.104-0.313,2.563c-0.021,0.021-0.083,0.094-0.188,0.219
			c-0.104,0.125-0.188,0.25-0.25,0.375c-0.291,0.417-0.5,0.938-0.625,1.563c-0.604,4.75-0.938,7.25-1,7.5
			c-0.063,0.208-0.531,0.688-1.406,1.438c-0.041,0.021-0.083,0.031-0.125,0.031c-0.063,0-0.094-0.083-0.094-0.25v-0.063
			c0.209-3.167,0.313-5.479,0.313-6.938c0-0.25,0-0.469,0-0.656L19.172,5.5c0.271-0.292,0.406-0.583,0.406-0.875
			c0-0.125-0.031-0.25-0.094-0.375c-0.166-0.375-0.479-0.646-0.938-0.813L17.234,3c-0.208-0.021-0.604-0.354-1.188-1
			c-0.021-0.042-0.031-0.104-0.031-0.188c0-0.25,0.084-0.625,0.25-1.125c0.959,0.375,1.531,0.563,1.719,0.563h5.688L23.703,1.219z"
			/>
	</g>
</g>
<g id="uu" display="none">
	<g display="inline">
		<path fill="#999999" d="M3.657,1.063l3.375-0.031c0.063,0,0.104,0.083,0.125,0.25c0.021,0.063,0.031,0.125,0.031,0.188
			c0,0.083-0.011,0.146-0.031,0.188C6.99,9.365,6.854,13.469,6.75,13.969c-0.125,0.542-0.271,1.677-0.438,3.406
			c-0.271,2.688-0.531,4.469-0.781,5.344l-0.406,2.344C4.708,24.979,4.5,24.75,4.5,24.375l-0.063-18
			c-0.021-0.292-0.094-1.292-0.219-3C4.302,3.229,4.344,3.104,4.344,3c0-0.292-0.208-0.542-0.625-0.75
			C3.427,2.083,3.115,1.969,2.782,1.906C2.719,1.823,2.615,1.469,2.469,0.844l1.188,0.188V1.063z M8.938,22.438
			c0.458-0.5,0.75-0.761,0.875-0.781l1-0.375c0.375-0.104,0.614-0.302,0.719-0.594c0.042-0.104,0.063-0.198,0.063-0.281
			c0-0.25-0.094-0.479-0.281-0.688l0.188-3.25v-0.563c0-1.125-0.083-2.927-0.25-5.406v-0.031c0-0.125,0.031-0.188,0.094-0.188
			c0.021,0,0.052,0.021,0.094,0.063c0.646,0.583,0.989,0.948,1.031,1.094c0.042,0.208,0.292,2.156,0.75,5.844
			C13.24,17.364,13.5,17.927,14,18.969c0.104,1.125,0.178,1.792,0.219,2c0.063,0.188,0.281,0.75,0.656,1.688
			c0.042,0.083,0.063,0.146,0.063,0.188c0,0.125-0.094,0.188-0.281,0.188h-4.218c-0.125,0-0.542,0.125-1.25,0.375
			C9.063,23.031,9,22.739,9,22.531c0-0.063,0.01-0.114,0.031-0.156L8.938,22.438z M17.969,9.188
			c0.729,0.292,1.156,0.438,1.281,0.438h4.25c0.167,0,0.25,0.063,0.25,0.188c0,0.042-0.01,0.094-0.031,0.156
			c-0.375,0.938-0.583,1.511-0.625,1.719c-0.083,0.188-0.177,0.844-0.281,1.969c-0.5,1.021-0.76,1.583-0.781,1.688
			c-0.416,3.708-0.656,5.646-0.719,5.813c-0.041,0.167-0.385,0.552-1.031,1.156c-0.041,0.021-0.072,0.031-0.094,0.031
			c-0.041,0-0.063-0.052-0.063-0.156v-0.063c0.146-2.375,0.219-4.136,0.219-5.281c0-0.25,0-0.469,0-0.656l-0.188-3.25
			c0.209-0.208,0.313-0.427,0.313-0.656c0-0.083-0.021-0.177-0.063-0.281c-0.125-0.292-0.375-0.5-0.75-0.625L18.719,11
			c-0.146-0.021-0.447-0.26-0.906-0.719c-0.021-0.042-0.031-0.104-0.031-0.188C17.781,9.906,17.844,9.604,17.969,9.188V9.156V9.188z
			"/>
	</g>
</g>
<g id="ur" display="none">
	<g display="inline">
		<path fill="#999999" d="M1.907,22.531c2.438-2.208,3.75-3.333,3.938-3.375c0.104-0.042,0.219-0.063,0.344-0.063
			c0.063,0,0.167,0.011,0.313,0.031c0.146,0.021,0.26,0.031,0.344,0.031c0.146,0,0.281-0.021,0.406-0.063
			c0.208-0.083,0.333-0.208,0.375-0.375c0.042-0.188,0.114-0.323,0.219-0.406C7.886,18.271,8.427,17.833,9.469,17
			c0.896-0.708,1.594-1.292,2.094-1.75c0.188-0.188,0.427-0.427,0.719-0.719c0.271-0.229,0.448-0.406,0.531-0.531
			c0.292-0.292,0.448-0.646,0.469-1.063c0.083-0.125,0.229-0.26,0.438-0.406c0.229-0.146,0.385-0.25,0.468-0.313
			c0.229-0.208,0.344-0.458,0.344-0.75c0-0.167-0.031-0.333-0.094-0.5c-0.041-0.104-0.146-0.281-0.313-0.531
			c-0.167-0.208-0.25-0.354-0.25-0.438c0-0.667,0.125-1.083,0.375-1.25c0.021,0.042,0.178,0.146,0.469,0.313
			c0.334,0.188,0.584,0.365,0.75,0.531c1.417,1.292,2.292,2.021,2.625,2.188c0.354,0.146,0.531,0.365,0.531,0.656v0.031
			c-0.021,0.333-0.281,0.604-0.781,0.813c-0.416,0.167-1.813,1.167-4.187,3c-2.417,1.833-3.615,2.75-3.594,2.75
			c-0.021,0.021-0.229,0.052-0.625,0.094c-0.417,0.021-0.792,0.114-1.125,0.281c-0.167,0.083-1.479,0.917-3.938,2.5
			c-2.25,1.438-3.448,2.156-3.594,2.156H0.75c-0.021-0.021-0.031-0.052-0.031-0.094c0-0.125,0.073-0.313,0.219-0.563
			c0.229-0.417,0.51-0.771,0.844-1.063L1.907,22.531z M2.813,0.844c0.75,0.292,1.198,0.438,1.344,0.438h4.438
			c0.208,0,0.313,0.063,0.313,0.188c0,0.083-0.021,0.167-0.063,0.25c-0.417,0.958-0.646,1.542-0.688,1.75
			C8.094,3.677,8.021,4.386,7.938,5.594C7.396,6.656,7.115,7.229,7.094,7.313c-0.458,3.875-0.719,5.906-0.781,6.094
			c-0.042,0.167-0.396,0.542-1.063,1.125c-0.042,0.042-0.073,0.063-0.094,0.063c-0.063,0-0.094-0.052-0.094-0.156v-0.063
			c0.167-2.604,0.25-4.489,0.25-5.656V8.156L5.125,4.719c0.208-0.208,0.313-0.438,0.313-0.688c0-0.104-0.021-0.208-0.063-0.313
			C5.25,3.386,5,3.167,4.625,3.063l-1-0.375C3.5,2.667,3.208,2.406,2.75,1.906C2.729,1.865,2.719,1.813,2.719,1.75
			c0-0.208,0.063-0.521,0.188-0.938L2.813,0.844z M18.875,0.844c0.75,0.292,1.209,0.438,1.375,0.438h4.406
			c0.209,0,0.313,0.063,0.313,0.188c0,0.083-0.021,0.167-0.063,0.25c-0.375,0.958-0.604,1.542-0.688,1.75
			C24.156,3.677,24.084,4.386,24,5.594c-0.541,1.063-0.822,1.636-0.844,1.719c-0.458,3.875-0.719,5.906-0.781,6.094
			c-0.041,0.167-0.396,0.542-1.063,1.125c-0.041,0.042-0.072,0.063-0.094,0.063c-0.063,0-0.094-0.052-0.094-0.156v-0.063
			c0.167-2.583,0.25-4.479,0.25-5.688V8.125l-0.188-3.438C21.396,4.479,21.5,4.25,21.5,4c0-0.104-0.021-0.208-0.063-0.313
			c-0.125-0.333-0.375-0.552-0.75-0.656l-1-0.375c-0.125-0.021-0.416-0.281-0.875-0.781c-0.021-0.042-0.031-0.094-0.031-0.156
			c0-0.208,0.063-0.521,0.188-0.938V0.75L18.875,0.844z"/>
	</g>
</g>
<g id="ir" display="none">
	<g display="inline">
		<path fill="#999999" d="M1.125,9.906c0-0.167,0.063-0.25,0.188-0.25c0.042,0,0.104,0.021,0.188,0.063
			c1,0.375,1.604,0.594,1.813,0.656c0.25,0.063,0.979,0.136,2.188,0.219c1.083,0.542,1.688,0.823,1.813,0.844
			c3.958,0.458,6.042,0.729,6.25,0.813c0.167,0.063,0.562,0.427,1.187,1.094c0.042,0.042,0.063,0.073,0.063,0.094
			c0,0.042-0.063,0.063-0.188,0.063h-0.063c-2.542-0.167-4.437-0.25-5.687-0.25c-0.25,0-0.469,0.011-0.656,0.031l-3.531,0.188
			c-0.229-0.208-0.469-0.313-0.719-0.313c-0.104,0-0.208,0.021-0.313,0.063c-0.333,0.125-0.563,0.375-0.688,0.75l-0.375,1.063
			c-0.021,0.146-0.302,0.448-0.844,0.906c-0.042,0.021-0.104,0.031-0.188,0.031c-0.208,0-0.521-0.063-0.938-0.188
			c0.292-0.771,0.438-1.229,0.438-1.375V9.844L1.125,9.906z M2.188,0.906c0.417,0.188,2.156,0.49,5.219,0.906
			c3,0.375,4.531,0.563,4.594,0.563c0.042,0,0.229,0.136,0.563,0.406c0.333,0.292,0.688,0.49,1.063,0.594
			c0.167,0.042,1.729,0.396,4.687,1.063c2.667,0.583,4.053,0.927,4.156,1.031V5.5c0,0.125-0.208,0.24-0.625,0.344
			c-0.375,0.083-0.75,0.125-1.125,0.125h-0.188c-3.375-0.167-5.146-0.292-5.313-0.375c-0.104-0.083-0.208-0.167-0.313-0.25
			c-0.041-0.042-0.104-0.125-0.188-0.25c-0.104-0.125-0.177-0.229-0.219-0.313c-0.125-0.104-0.25-0.188-0.375-0.25
			c-0.104-0.042-0.208-0.063-0.312-0.063c-0.063,0-0.125,0.011-0.188,0.031c-0.167,0.104-0.313,0.156-0.438,0.156h-0.031
			c-0.083,0-0.813-0.083-2.188-0.25C9.802,4.281,8.865,4.208,8.157,4.188c-0.292,0-0.646-0.021-1.063-0.063
			C6.844,4.104,6.646,4.094,6.5,4.094H6.344C5.886,4.115,5.511,4.25,5.219,4.5C5.177,4.521,5.136,4.531,5.094,4.531
			c-0.125,0-0.271-0.021-0.438-0.063c-0.292-0.042-0.5-0.063-0.625-0.063H3.969c-0.458,0-0.813,0.25-1.063,0.75
			C2.865,5.24,2.823,5.427,2.782,5.719c-0.042,0.292-0.083,0.458-0.125,0.5C2.24,6.636,1.886,6.844,1.594,6.844
			c-0.042,0-0.083,0-0.125,0V6.781c0-0.063-0.042-0.229-0.125-0.5C1.24,5.906,1.188,5.594,1.188,5.344
			C1.125,3.406,1.021,2.229,0.875,1.813C0.833,1.667,0.813,1.531,0.813,1.406c0-0.188,0.073-0.344,0.219-0.469
			c0.125-0.125,0.292-0.188,0.5-0.188c0.208,0,0.438,0.063,0.688,0.188L2.188,0.906z M23.625,13.063
			c-0.416,0.167-1.854,1.188-4.313,3.063C16.813,18.042,15.584,19,15.625,19c-0.041,0.021-0.271,0.052-0.688,0.094
			c-0.416,0.021-0.791,0.114-1.125,0.281c-0.146,0.083-1.49,0.938-4.031,2.563c-2.292,1.458-3.511,2.188-3.656,2.188
			c-0.042-0.021-0.063-0.052-0.063-0.094c0-0.125,0.083-0.333,0.25-0.625c0.229-0.417,0.51-0.761,0.844-1.031
			c2.521-2.25,3.875-3.406,4.063-3.469c0.104-0.042,0.219-0.063,0.344-0.063c0.083,0,0.198,0.011,0.344,0.031
			c0.146,0.021,0.26,0.031,0.344,0.031c0.146,0,0.292-0.021,0.438-0.063c0.208-0.083,0.333-0.198,0.375-0.344
			c0.063-0.208,0.135-0.354,0.219-0.438c0.063-0.042,0.635-0.489,1.718-1.344c0.917-0.708,1.625-1.313,2.125-1.813
			c0.188-0.208,0.448-0.448,0.781-0.719c0.292-0.25,0.479-0.417,0.563-0.5c0.292-0.333,0.448-0.708,0.469-1.125
			c0.084-0.104,0.229-0.229,0.438-0.375c0.25-0.167,0.417-0.281,0.5-0.344c0.209-0.208,0.313-0.458,0.313-0.75
			c0-0.167-0.041-0.344-0.125-0.531c-0.021-0.104-0.125-0.281-0.313-0.531c-0.166-0.208-0.25-0.344-0.25-0.406
			c0-0.729,0.146-1.167,0.438-1.313c0.021,0.042,0.178,0.146,0.469,0.313c0.375,0.208,0.646,0.396,0.813,0.563
			c1.417,1.333,2.313,2.083,2.688,2.25c0.334,0.167,0.5,0.396,0.5,0.688v0.063C24.386,12.521,24.125,12.813,23.625,13.063v-0.031
			V13.063z"/>
	</g>
</g>
<g id="oo" display="none">
	
		<text transform="matrix(1 0 0 1 -0.4214 23.8438)" display="inline" fill="#999999" font-family="'Dragon_script-Regular'" font-size="32">8</text>
</g>
<g id="ey" display="none">
	<g display="inline">
		<path fill="#999999" d="M4.079,1.219c0.875,0.688,1.313,1.323,1.313,1.906c0.5,4.563,0.875,6.844,1.125,6.844
			s0.458,0.844,0.625,2.531c0,0.125,0.25,0.875,0.75,2.25l-0.188,0.125H3.422c-0.292,0-0.854,0.136-1.688,0.406
			c-0.167-0.375-0.25-0.708-0.25-1c0.25-0.563,1.021-1.052,2.313-1.469c0.333-0.229,0.5-0.469,0.5-0.719v-0.188
			c0-0.188-0.104-0.406-0.313-0.656C4.11,9.792,4.172,8.5,4.172,7.375c0-0.75-0.063-2.781-0.188-6.094L4.11,1.219H4.079z
			 M15.766,9.656c0.209,0,1.375,0.938,3.5,2.813c0.604,0.333,0.938,0.667,1,1c0,0.375-0.541,0.813-1.625,1.313l-7.25,5.5
			c-1.083,0-2.354,0.552-3.813,1.656c-2.5,1.604-4.365,2.761-5.594,3.469l-0.063-0.125c0-0.708,1.292-2.104,3.875-4.188
			c0.667-0.667,1.167-1,1.5-1c0.5,0.042,0.781,0.063,0.844,0.063c0.5-0.083,0.75-0.313,0.75-0.688
			c2.083-1.667,3.688-3.021,4.813-4.063c0.667-0.583,1-1.125,1-1.625c0.792-0.458,1.188-0.938,1.188-1.438
			c0-0.333-0.229-0.813-0.688-1.438c0.084-0.833,0.24-1.25,0.469-1.25V9.625L15.766,9.656z M21.266,1.344
			c0.167,0,1.178,0.792,3.031,2.375v0.188c-0.188,0.292-1.166,1.104-2.938,2.438h-0.125c-0.188,0-1.188-0.792-3-2.375v-0.25
			c1.792-1.583,2.813-2.375,3.063-2.375H21.266z"/>
	</g>
</g>
</svg>
