<?xml version="1.0" encoding="utf-8"?>

<!DOCTYPE svg PUBLIC "-//W3C//DTD SVG 1.1//EN" "http://www.w3.org/Graphics/SVG/1.1/DTD/svg11.dtd">
<svg version="1.1" id="Layer_1" xmlns="http://www.w3.org/2000/svg" xmlns:xlink="http://www.w3.org/1999/xlink" x="0px" y="0px"
	 viewBox="0 0 2536.79 1651.1061" enable-background="new 0 0 2536.79 1651.1061" xml:space="preserve">
<g>
	<path d="M1267.9258,25.553c22.8501,35.42,43.1588,72.4196,64.1086,108.9844c23.5826,42.1976,46.8679,84.5552,69.4663,127.2788
		c23.3308,49.0429,43.8687,99.4599,60.7659,151.0904c58.4303-53.8972,124.5996-99.2771,194.8213-136.3914
		c35.3748-18.4313,71.8937-34.733,109.6262-47.7377c7.5099,54.8586,9.9594,110.4501,8.4255,165.7894
		c-1.6256,44.1205-5.9756,88.4239-17.149,131.2627c37.4351-17.8361,77.1364-30.3142,116.5178-43.0674
		c84.715-26.6054,170.3685-50.2565,256.3429-72.4884c-5.7927,49.0888-20.5146,98.4979-50.0278,138.7491
		c-5.8616,6.8917-10.8296,15.4548-19.5762,19.0496c-39.1058,17.9048-77.4795,37.4803-114.2047,59.8956
		c-17.8818,10.8068-34.8018,23.1252-50.4398,36.9544c14.6302-31.4361,29.9709-62.5519,46.0439-93.2781
		c-93.6448,29.0319-184.7708,65.917-272.9202,108.7328c-69.9241,33.8856-137.2153,73.0837-201.6904,116.4026
		c-14.7449-48.4476-32.9015-95.8421-53.5308-142.0695c-15.1342-35.4888-34.9392-68.665-53.0956-102.6422
		c-29.9478-54.6758-60.5597-109.0308-93.072-162.218c-47.074,76.0603-89.5919,154.8456-131.9724,233.5846
		c-22.5295,46.9596-42.1741,95.2932-58.9341,144.6107c-3.3657,9.1131-3.6174,19.0496-7.1206,28.1621
		c-73.7249-50.5539-152.3954-93.5984-232.9664-132.1554c-75.4191-35.7173-152.5328-68.0925-231.5468-95.0182
		c12.0433,22.5986,21.0871,46.7081,29.4901,70.8858c-29.4901-26.2845-65.3452-43.7768-101.0857-59.8268
		c-17.2178-7.5099-34.5958-14.6079-52.2714-20.9043c-8.9982-2.3807-13.5087-11.2418-18.8204-18.0189
		c-25.6895-38.0533-26.628-87.6229-15.8212-130.896c50.5771,13.0277,100.3987,28.8257,150.0831,44.8987
		c62.6433,21.11,125.6072,42.0602,185.4572,70.428c-14.3787-57.7665-17.9735-117.5939-17.3324-176.9171
		c0.9159-40.0908,3.4344-80.2046,8.5631-119.9746c81.2806,28.1621,157.3638,70.1988,226.9446,120.5699
		c23.583,17.3095,46.6849,35.3741,68.3903,55.042c1.9005,1.1677,3.4343,4.3271,6.2277,3.4802
		c16.1647-47.944,35.2827-94.8807,56.6903-140.7184C1175.2656,185.3434,1220.0961,104.5441,1267.9258,25.553z"/>
	<path d="M1156.1246,732.4427c36.4275-67.3373,73.2671-134.4908,113.2662-199.7672
		c38.7172,61.2238,72.9238,125.2178,107.7714,188.7312c21.7053,38.1674,38.8314,78.6931,54.9733,119.4709
		c31.6191,82.0135,55.8433,168.377,57.194,256.8243c0.6412,53.4618-8.2424,107.8396-31.8712,156.1732
		c-36.1296,75.6025-108.6412,129.1329-187.9987,152.4409c-40.1823-12.5011-78.7163-31.2299-111.6636-57.5831
		c-29.6273-23.4454-54.4009-52.981-72.0764-86.3634c-19.2097-36.0841-29.9479-76.2666-34.0005-116.8153
		c-5.3346-53.7137,0.1831-107.9541,11.3104-160.5919c10.9215-51.2873,27.1549-101.3375,46.4331-150.0602
		C1123.5667,800.1227,1137.8766,765.2751,1156.1246,732.4427z"/>
	<path d="M42.0534,564.9126c103.3295,8.472,206.0407,28.9179,303.5774,64.4296c76.0603,28.0934,149.6938,66.4899,209.2232,122.287
		c12.8446,12.1579,25.1168,25.0481,35.9465,39.0607c-9.9597,101.7495-6.0214,206.6818,25.8038,304.5621
		c19.2556,59.2314,51.9282,115.1667,99.9409,155.6466c-47.8984-5.1057-94.8578-17.149-140.3521-32.7413
		c-84.1884-29.3298-163.3858-74.4348-228.8452-135.2236c-72.3282-66.5123-126.1337-152.1893-157.6844-245.0778
		c-7.6013-20.4465-10.7151-42.1747-17.4926-62.8728c-14.7219-48.7227-34.1835-96.5062-62.3456-139.0929
		C91.8979,608.278,69.1163,583.733,42.0534,564.9126z"/>
	<path d="M2417.6003,572.583c23.3997-3.2969,46.8909-5.8157,70.4739-7.4871c-34.4358,23.4225-60.7432,56.7821-81.1438,92.7057
		c-23.2163,41.0065-40.1589,85.3562-52.6836,130.7133c-4.3501,14.3099-6.5022,29.2152-11.585,43.3419
		c-28.3684,85.5848-74.9155,165.5837-138.2917,229.9898c-58.9114,60.9722-131.4456,108.0458-209.498,140.6954
		c-57.9041,23.9038-118.8528,41.5336-181.2443,48.2878c31.1388-26.1241,56.2784-58.98,74.7322-95.1099
		c21.3621-41.2357,34.9392-86.1572,43.5482-131.6747c14.15-76.7473,15.7755-155.6925,7.1208-233.1721
		c51.882-64.1087,123.2261-109.4199,198.0271-142.3674C2226.2129,609.6056,2321.4832,586.1372,2417.6003,572.583z"/>
	<path d="M634.6234,722.0249c79.1744,26.2158,156.8144,58.4535,228.4101,101.5433c37.0228,22.8278,73.0381,48.6997,100.8568,82.5171
		c13.6918,17.1949,25.8723,36.7252,29.9708,58.5909c-8.4485,55.0649-11.5623,111.137-6.8229,166.7056
		c4.0526,47.5778,13.7375,95.2239,33.9546,138.7262c15.2258,32.9705,37.5494,62.7123,65.9863,85.4249
		c-90.05,23.285-191.3646,10.761-268.295-43.319c-63.3758-43.6627-105.8937-111.1141-134.4679-181.3358
		c-21.3847-52.7753-33.0845-109.26-36.3129-166.0416c-3.549-55.7748,1.9232-111.5261,3.7321-167.278
		C651.5206,771.7549,650.8569,743.5469,634.6234,722.0249z"/>
	<path d="M1710.4814,799.3676c59.4607-30.9095,121.6235-56.7134,185.4573-77.0911c-19.0725,25.4376-16.5537,58.9341-16.462,88.9739
		c2.4958,55.6602,7.3495,111.4803,2.3353,167.1405c-6.5485,87.0046-35.4657,172.2462-83.8223,244.895
		c-23.5371,35.1685-53.1415,66.5358-88.1494,90.4619c-76.7244,52.8441-176.9397,64.7499-266.1881,41.8539
		c29.879-24.1782,53.3245-55.7518,68.5045-90.9885c18.5001-41.8539,27.4293-87.3025,31.436-132.6819
		c4.1902-50.8748,2.2441-102.162-4.6935-152.693c-0.8472-7.1438-3.6633-14.4475-0.7328-21.3621
		c10.3032-34.0695,34.6187-61.6816,60.7888-84.8296C1632.681,843.6708,1671.0547,820.2025,1710.4814,799.3676z"/>
	<path d="M99.4534,1088.6346c41.625-15.7292,85.7914-24.2006,130.0491-27.933c9.1813,20.1028,24.1324,36.7711,38.5338,53.3019
		c29.2153,31.8939,59.9188,62.6207,94.1711,89.1567c29.6733,22.9188,59.9646,46.0669,94.8351,60.5602
		c68.6878,30.3595,144.0156,45.6774,219.1142,44.418c10.7612,0.8698,20.8811-3.6636,31.5278-4.5333
		c8.0135,15.6833,21.2246,27.8184,33.6799,39.9762c67.4287,61.6357,156.0589,97.537,246.3378,107.5193
		c30.1767,3.7095,60.6514,3.3198,90.9885,2.5417c10.3031,11.6307,24.842,18.1564,38.946,24.0408
		c31.1614,12.0433,64.2917,17.973,97.3307,22.2548c22.5295,2.2208,45.1965,5.8386,67.9092,3.6859
		c26.6051-1.6942,53.256-4.8307,79.1515-11.3792c21.11-5.6323,42.4033-13.0277,59.5983-26.9486
		c6.9601-5.6323,12.5469-12.7985,16.1643-20.9496c9.9597,2.7932,20.0569,5.9984,30.6119,5.1746
		c114.9834,1.8088,232.0966-33.1075,322.4438-105.3673c13.9204-12.0891,29.0778-23.8574,38.0299-40.3199
		c7.3954,0.275,14.4475,2.7021,21.7512,3.9614c56.37,2.2438,113.0604-5.2891,167.1176-21.3391
		c32.7412-10.1428,65.2993-22.1407,94.9495-39.5184c61.2466-38.3966,115.8538-86.8213,163.2483-141.3138
		c11.677-13.9209,23.6287-28.0704,30.9783-44.8533c41.2126,3.2739,82.3108,11.036,121.4402,24.6132
		c25.3689,9.1583,50.8977,21.2245,69.1685,41.7163c-41.1438,40.3201-93.1633,68.1613-147.7476,85.5853
		c37.6868,22.7814,71.8936,51.8591,99.4146,86.3406c-23.7205-3.9839-47.8757-3.3198-71.802-2.2208
		c-29.9709,1.488-59.8267,4.7162-89.6372,8.0594c28.8943,28.3678,56.5068,58.4076,79.2424,92.0416
		c-100.1011,29.6042-207.1396,40.5486-310.2402,20.9724c-31.848-5.9984-63.1471-14.951-93.3696-26.6506
		c14.4016,15.8209,27.8876,32.4435,41.396,49.043c8.9521,11.4022,22.0033,18.5231,35.0081,24.4069
		c21.6365,9.5481,44.5095,16.0043,67.6118,20.9043c-44.8076,15.4778-91.9506,23.5143-138.9331,29.0778
		c-118.5776,12.8907-238.6444,2.3584-355.4136-20.4c-17.2865-3.5948-34.6416-6.9834-51.7222-11.3793
		c-24.4756,34.1377-55.3164,63.7649-91.2174,85.6765c-73.9082,45.2654-162.9733,62.0935-248.7875,55.6831
		c-76.9075-6.0907-153.2883-34.8247-210.6428-87.2109c-16.668-15.1115-31.642-32.1918-44.0059-50.9663
		c-107.9774,24.0406-218.7251,38.6028-329.5413,34.2292c-70.4967-2.8849-141.1536-12.7755-208.4678-34.4585
		c29.0093-6.6625,58.293-14.4469,84.2343-29.4668c16.5079-9.1355,25.9868-26.033,38.1903-39.7018
		c7.0292-8.5859,14.5159-16.7823,21.6597-25.2314c-95.545,37.2289-201.0953,44.1893-301.9063,28.3226
		c-34.2523-5.2891-68.0696-13.1422-101.3375-22.7814c22.7587-33.543,50.2339-63.6509,79.0827-91.9963
		c-33.6799-4.0979-67.4514-7.3724-101.3604-8.7001c-20.034-0.5494-40.1822-0.6641-59.9873,2.7704
		c27.704-34.1835,61.5443-63.4675,99.2081-86.1807c-54.149-18.0417-106.3516-45.1967-147.1979-85.6995
		C55.0352,1108.7374,77.3132,1097.5873,99.4534,1088.6346z"/>
</g>
</svg>
